<svg width="202" height="202" viewBox="0 0 202 202" fill="none" xmlns="http://www.w3.org/2000/svg">
<path d="M25 145.641L35.4933 141.321C52.4545 168.104 71.8355 183.268 98.2046 183.268C118.128 183.268 134.004 170.809 134.004 149.983C134.004 109.924 32.2367 134.296 32.2367 68.7952C32.2367 32.5322 63.1967 6 101.687 6C127.536 6 148.523 17.6406 165.484 42.5358L156.325 48.7653C139.907 28.1898 125.908 17.9134 101.959 17.9134C83.3918 17.9134 69.6645 27.6669 69.6645 46.6055C69.6645 82.5957 176 68.7953 176 130.226C176 165.944 141.535 196 101.167 196C70.2299 195.977 42.504 177.857 25 145.641ZM58.6511 49.8339C58.6511 38.739 63.2193 30.3497 69.9585 22.2331C52.7259 30.0768 42.5039 49.0154 42.5039 65.2713C42.5039 124.27 144.52 98.2831 144.52 147.278C144.52 161.078 138.866 171.105 128.102 183.268C150.174 170.559 164.987 152.689 164.987 131.568C164.987 79.0717 58.6511 93.6905 58.6511 49.8339Z" fill="white"/>
</svg>
